<svg width="30" height="31" viewBox="0 0 30 31" fill="none" xmlns="http://www.w3.org/2000/svg">
<path d="M15 3.31301C12.5897 3.31321 10.2335 4.02813 8.22951 5.36738C6.2255 6.70662 4.66362 8.61004 3.74136 10.8369C2.81911 13.0638 2.57791 15.5142 3.04826 17.8782C3.51861 20.2422 4.67939 22.4136 6.38381 24.1179C8.08824 25.8222 10.2598 26.9828 12.6238 27.4529C14.9878 27.9231 17.4381 27.6817 19.665 26.7592C21.8918 25.8368 23.7951 24.2748 25.1342 22.2706C26.4732 20.2665 27.188 17.9103 27.188 15.5C27.184 12.2688 25.8986 9.17101 23.6138 6.88618C21.329 4.60134 18.2312 3.31698 15 3.31301ZM19.688 16.437H15.938V20.187C15.938 20.4358 15.8391 20.6744 15.6632 20.8503C15.4873 21.0262 15.2487 21.125 15 21.125C14.7512 21.125 14.5126 21.0262 14.3367 20.8503C14.1608 20.6744 14.062 20.4358 14.062 20.187V16.437H10.312C10.0686 16.4291 9.83791 16.3268 9.66859 16.1519C9.49926 15.9769 9.40459 15.743 9.40459 15.4995C9.40459 15.256 9.49926 15.0221 9.66859 14.8472C9.83791 14.6722 10.0686 14.57 10.312 14.562H14.062V10.812C14.062 10.5632 14.1608 10.3247 14.3367 10.1487C14.5126 9.97284 14.7512 9.87401 15 9.87401C15.2487 9.87401 15.4873 9.97284 15.6632 10.1487C15.8391 10.3247 15.938 10.5632 15.938 10.812V14.562H19.688C19.9367 14.562 20.1753 14.6608 20.3512 14.8367C20.5271 15.0127 20.626 15.2512 20.626 15.5C20.626 15.7488 20.5271 15.9874 20.3512 16.1633C20.1753 16.3392 19.9367 16.437 19.688 16.437Z" fill="black"/>
</svg>
