<svg width="40" height="41" viewBox="0 0 40 41" fill="none" xmlns="http://www.w3.org/2000/svg">
<path d="M37.5 20.5C37.5041 21.0126 37.3483 21.5139 37.0544 21.934C36.7605 22.354 36.343 22.6721 35.86 22.844L25.947 26.448L22.344 36.359C22.1665 36.8376 21.8467 37.2504 21.4277 37.5419C21.0087 37.8334 20.5104 37.9897 20 37.9897C19.4895 37.9897 18.9913 37.8334 18.5722 37.5419C18.1532 37.2504 17.8335 36.8376 17.656 36.359L14.052 26.437L4.14096 22.844C3.66236 22.6665 3.24955 22.3467 2.95803 21.9277C2.66651 21.5087 2.51025 21.0104 2.51025 20.5C2.51025 19.9895 2.66651 19.4913 2.95803 19.0722C3.24955 18.6532 3.66236 18.3335 4.14096 18.156L14.062 14.552L17.656 4.64096C17.8335 4.16236 18.1532 3.74955 18.5722 3.45803C18.9913 3.16651 19.4895 3.01025 20 3.01025C20.5104 3.01025 21.0087 3.16651 21.4277 3.45803C21.8467 3.74955 22.1665 4.16236 22.344 4.64096L25.948 14.562L35.859 18.156C36.3422 18.3277 36.7599 18.6457 37.054 19.0658C37.3481 19.4859 37.504 19.9872 37.5 20.5Z" fill="black"/>
</svg>
